<?xml version="1.0" standalone="no"?>
<!DOCTYPE svg PUBLIC "-//W3C//DTD SVG 20010904//EN"
 "http://www.w3.org/TR/2001/REC-SVG-20010904/DTD/svg10.dtd">
<svg version="1.0" xmlns="http://www.w3.org/2000/svg"
 width="612.000000pt" height="612.000000pt" viewBox="0 0 612.000000 612.000000"
 preserveAspectRatio="xMidYMid meet">

<g transform="translate(0.000000,612.000000) scale(0.100000,-0.100000)"
fill="#000000" stroke="none">
<path d="M1301 5465 c-428 -93 -733 -447 -769 -892 -33 -407 159 -788 493
-978 28 -15 52 -29 54 -31 3 -3 -96 -186 -261 -484 -32 -57 -58 -108 -58 -113
0 -7 202 94 728 365 105 54 192 97 192 94 0 -2 -7 -38 -16 -78 -24 -105 -24
-346 0 -458 89 -416 377 -734 763 -843 77 -21 91 -22 918 -27 l840 -5 155 -79
c85 -43 269 -137 408 -208 139 -72 255 -128 258 -126 2 3 -50 102 -116 221
-66 119 -120 219 -120 221 0 2 24 12 53 22 28 9 88 34 132 56 595 295 783
1103 387 1664 -156 220 -386 370 -644 419 -63 12 -163 15 -470 15 -331 0 -389
2 -385 14 17 44 29 192 24 295 -21 460 -334 844 -761 932 -85 17 -146 19 -916
18 -664 0 -837 -3 -889 -14z m1709 -126 c625 -78 935 -831 567 -1374 -107
-157 -262 -270 -449 -327 -72 -22 -87 -22 -738 -28 l-665 -5 -317 -162 c-175
-90 -318 -159 -318 -155 0 4 43 84 95 177 l94 170 -50 17 c-131 45 -235 114
-334 221 -382 412 -281 1098 203 1375 71 40 197 81 282 92 102 12 1532 12
1630 -1z m-205 -1993 c102 -47 159 -157 136 -262 -50 -221 -349 -263 -453 -64
-108 205 106 425 317 326z m850 0 c91 -43 138 -116 138 -217 1 -164 -166 -280
-322 -224 -63 22 -98 51 -131 108 -24 42 -30 64 -30 115 0 34 6 77 13 95 53
125 207 182 332 123z m850 0 c195 -90 180 -371 -24 -441 -118 -40 -249 12
-301 120 -26 54 -29 143 -8 195 54 128 206 185 333 126z"/>
<path d="M1502 4628 c-77 -17 -142 -103 -142 -188 0 -39 41 -111 82 -143 100
-80 264 -22 298 104 38 140 -89 262 -238 227z"/>
<path d="M2195 4636 c-5 -3 -22 -7 -37 -10 -73 -16 -135 -116 -126 -201 18
-152 212 -219 326 -112 87 81 67 244 -38 297 -37 19 -105 33 -125 26z"/>
<path d="M2826 4625 c-192 -68 -155 -346 48 -363 108 -9 195 61 204 163 6 70
-11 116 -58 159 -59 53 -123 67 -194 41z"/>
<path d="M2785 1019 c-88 -9 -143 -18 -216 -37 -38 -10 -88 -41 -89 -55 0 -19
113 -57 220 -73 246 -36 753 -17 884 33 56 22 61 28 49 56 -23 50 -287 88
-593 85 -91 0 -205 -5 -255 -9z"/>
</g>
</svg>
